<svg width="317" height="235" viewBox="0 0 317 235" fill="none" xmlns="http://www.w3.org/2000/svg">
<g filter="url(#filter0_d_5_241)">
<rect x="80" y="70" width="157" height="75" rx="18" fill="#FEFEFD"/>
</g>
<path d="M105 91C105 88.7909 106.791 87 109 87H139C140.105 87 141 87.8954 141 89V125C141 126.105 140.105 127 139 127H109C106.791 127 105 125.209 105 123V91Z" fill="#FF8282"/>
<path d="M111 119H135C136.105 119 137 118.105 137 117C137 115.895 136.105 115 135 115H111C109.895 115 109 115.895 109 117C109 118.105 109.895 119 111 119Z" fill="white"/>
<path d="M157.37 99.51C157.37 98.83 157.527 98.22 157.84 97.68C158.16 97.14 158.59 96.72 159.13 96.42C159.677 96.1133 160.273 95.96 160.92 95.96C161.66 95.96 162.317 96.1433 162.89 96.51C163.47 96.87 163.89 97.3833 164.15 98.05H162.78C162.6 97.6833 162.35 97.41 162.03 97.23C161.71 97.05 161.34 96.96 160.92 96.96C160.46 96.96 160.05 97.0633 159.69 97.27C159.33 97.4767 159.047 97.7733 158.84 98.16C158.64 98.5467 158.54 98.9967 158.54 99.51C158.54 100.023 158.64 100.473 158.84 100.86C159.047 101.247 159.33 101.547 159.69 101.76C160.05 101.967 160.46 102.07 160.92 102.07C161.34 102.07 161.71 101.98 162.03 101.8C162.35 101.62 162.6 101.347 162.78 100.98H164.15C163.89 101.647 163.47 102.16 162.89 102.52C162.317 102.88 161.66 103.06 160.92 103.06C160.267 103.06 159.67 102.91 159.13 102.61C158.59 102.303 158.16 101.88 157.84 101.34C157.527 100.8 157.37 100.19 157.37 99.51ZM167.874 103.09C167.354 103.09 166.884 102.973 166.464 102.74C166.044 102.5 165.714 102.167 165.474 101.74C165.234 101.307 165.114 100.807 165.114 100.24C165.114 99.68 165.238 99.1833 165.484 98.75C165.731 98.3167 166.068 97.9833 166.494 97.75C166.921 97.5167 167.398 97.4 167.924 97.4C168.451 97.4 168.928 97.5167 169.354 97.75C169.781 97.9833 170.118 98.3167 170.364 98.75C170.611 99.1833 170.734 99.68 170.734 100.24C170.734 100.8 170.608 101.297 170.354 101.73C170.101 102.163 169.754 102.5 169.314 102.74C168.881 102.973 168.401 103.09 167.874 103.09ZM167.874 102.1C168.168 102.1 168.441 102.03 168.694 101.89C168.954 101.75 169.164 101.54 169.324 101.26C169.484 100.98 169.564 100.64 169.564 100.24C169.564 99.84 169.488 99.5033 169.334 99.23C169.181 98.95 168.978 98.74 168.724 98.6C168.471 98.46 168.198 98.39 167.904 98.39C167.611 98.39 167.338 98.46 167.084 98.6C166.838 98.74 166.641 98.95 166.494 99.23C166.348 99.5033 166.274 99.84 166.274 100.24C166.274 100.833 166.424 101.293 166.724 101.62C167.031 101.94 167.414 102.1 167.874 102.1ZM176.851 97.49V103H175.711V102.35C175.531 102.577 175.295 102.757 175.001 102.89C174.715 103.017 174.408 103.08 174.081 103.08C173.648 103.08 173.258 102.99 172.911 102.81C172.571 102.63 172.301 102.363 172.101 102.01C171.908 101.657 171.811 101.23 171.811 100.73V97.49H172.941V100.56C172.941 101.053 173.065 101.433 173.311 101.7C173.558 101.96 173.895 102.09 174.321 102.09C174.748 102.09 175.085 101.96 175.331 101.7C175.585 101.433 175.711 101.053 175.711 100.56V97.49H176.851ZM179.495 98.29C179.662 98.01 179.882 97.7933 180.155 97.64C180.435 97.48 180.765 97.4 181.145 97.4V98.58H180.855C180.409 98.58 180.069 98.6933 179.835 98.92C179.609 99.1467 179.495 99.54 179.495 100.1V103H178.355V97.49H179.495V98.29ZM184.193 103.09C183.76 103.09 183.37 103.013 183.023 102.86C182.683 102.7 182.413 102.487 182.213 102.22C182.013 101.947 181.907 101.643 181.893 101.31H183.073C183.093 101.543 183.203 101.74 183.403 101.9C183.61 102.053 183.867 102.13 184.173 102.13C184.493 102.13 184.74 102.07 184.913 101.95C185.093 101.823 185.183 101.663 185.183 101.47C185.183 101.263 185.083 101.11 184.883 101.01C184.69 100.91 184.38 100.8 183.953 100.68C183.54 100.567 183.203 100.457 182.943 100.35C182.683 100.243 182.457 100.08 182.263 99.86C182.077 99.64 181.983 99.35 181.983 98.99C181.983 98.6967 182.07 98.43 182.243 98.19C182.417 97.9433 182.663 97.75 182.983 97.61C183.31 97.47 183.683 97.4 184.103 97.4C184.73 97.4 185.233 97.56 185.613 97.88C186 98.1933 186.207 98.6233 186.233 99.17H185.093C185.073 98.9233 184.973 98.7267 184.793 98.58C184.613 98.4333 184.37 98.36 184.063 98.36C183.763 98.36 183.533 98.4167 183.373 98.53C183.213 98.6433 183.133 98.7933 183.133 98.98C183.133 99.1267 183.187 99.25 183.293 99.35C183.4 99.45 183.53 99.53 183.683 99.59C183.837 99.6433 184.063 99.7133 184.363 99.8C184.763 99.9067 185.09 100.017 185.343 100.13C185.603 100.237 185.827 100.397 186.013 100.61C186.2 100.823 186.297 101.107 186.303 101.46C186.303 101.773 186.217 102.053 186.043 102.3C185.87 102.547 185.623 102.74 185.303 102.88C184.99 103.02 184.62 103.09 184.193 103.09ZM192.585 100.11C192.585 100.317 192.572 100.503 192.545 100.67H188.335C188.368 101.11 188.532 101.463 188.825 101.73C189.118 101.997 189.478 102.13 189.905 102.13C190.518 102.13 190.952 101.873 191.205 101.36H192.435C192.268 101.867 191.965 102.283 191.525 102.61C191.092 102.93 190.552 103.09 189.905 103.09C189.378 103.09 188.905 102.973 188.485 102.74C188.072 102.5 187.745 102.167 187.505 101.74C187.272 101.307 187.155 100.807 187.155 100.24C187.155 99.6733 187.268 99.1767 187.495 98.75C187.728 98.3167 188.052 97.9833 188.465 97.75C188.885 97.5167 189.365 97.4 189.905 97.4C190.425 97.4 190.888 97.5133 191.295 97.74C191.702 97.9667 192.018 98.2867 192.245 98.7C192.472 99.1067 192.585 99.5767 192.585 100.11ZM191.395 99.75C191.388 99.33 191.238 98.9933 190.945 98.74C190.652 98.4867 190.288 98.36 189.855 98.36C189.462 98.36 189.125 98.4867 188.845 98.74C188.565 98.9867 188.398 99.3233 188.345 99.75H191.395ZM195.707 103.09C195.274 103.09 194.884 103.013 194.537 102.86C194.197 102.7 193.927 102.487 193.727 102.22C193.527 101.947 193.42 101.643 193.407 101.31H194.587C194.607 101.543 194.717 101.74 194.917 101.9C195.124 102.053 195.38 102.13 195.687 102.13C196.007 102.13 196.254 102.07 196.427 101.95C196.607 101.823 196.697 101.663 196.697 101.47C196.697 101.263 196.597 101.11 196.397 101.01C196.204 100.91 195.894 100.8 195.467 100.68C195.054 100.567 194.717 100.457 194.457 100.35C194.197 100.243 193.97 100.08 193.777 99.86C193.59 99.64 193.497 99.35 193.497 98.99C193.497 98.6967 193.584 98.43 193.757 98.19C193.93 97.9433 194.177 97.75 194.497 97.61C194.824 97.47 195.197 97.4 195.617 97.4C196.244 97.4 196.747 97.56 197.127 97.88C197.514 98.1933 197.72 98.6233 197.747 99.17H196.607C196.587 98.9233 196.487 98.7267 196.307 98.58C196.127 98.4333 195.884 98.36 195.577 98.36C195.277 98.36 195.047 98.4167 194.887 98.53C194.727 98.6433 194.647 98.7933 194.647 98.98C194.647 99.1267 194.7 99.25 194.807 99.35C194.914 99.45 195.044 99.53 195.197 99.59C195.35 99.6433 195.577 99.7133 195.877 99.8C196.277 99.9067 196.604 100.017 196.857 100.13C197.117 100.237 197.34 100.397 197.527 100.61C197.714 100.823 197.81 101.107 197.817 101.46C197.817 101.773 197.73 102.053 197.557 102.3C197.384 102.547 197.137 102.74 196.817 102.88C196.504 103.02 196.134 103.09 195.707 103.09ZM157.45 111.75V110.71H159.53V118H158.38V111.75H157.45ZM161.096 114.26C161.096 113.107 161.289 112.207 161.676 111.56C162.069 110.907 162.743 110.58 163.696 110.58C164.649 110.58 165.319 110.907 165.706 111.56C166.099 112.207 166.296 113.107 166.296 114.26C166.296 115.427 166.099 116.34 165.706 117C165.319 117.653 164.649 117.98 163.696 117.98C162.743 117.98 162.069 117.653 161.676 117C161.289 116.34 161.096 115.427 161.096 114.26ZM165.176 114.26C165.176 113.72 165.139 113.263 165.066 112.89C164.999 112.517 164.859 112.213 164.646 111.98C164.433 111.74 164.116 111.62 163.696 111.62C163.276 111.62 162.959 111.74 162.746 111.98C162.533 112.213 162.389 112.517 162.316 112.89C162.249 113.263 162.216 113.72 162.216 114.26C162.216 114.82 162.249 115.29 162.316 115.67C162.383 116.05 162.523 116.357 162.736 116.59C162.956 116.823 163.276 116.94 163.696 116.94C164.116 116.94 164.433 116.823 164.646 116.59C164.866 116.357 165.009 116.05 165.076 115.67C165.143 115.29 165.176 114.82 165.176 114.26ZM167.502 114.26C167.502 113.107 167.696 112.207 168.082 111.56C168.476 110.907 169.149 110.58 170.102 110.58C171.056 110.58 171.726 110.907 172.112 111.56C172.506 112.207 172.702 113.107 172.702 114.26C172.702 115.427 172.506 116.34 172.112 117C171.726 117.653 171.056 117.98 170.102 117.98C169.149 117.98 168.476 117.653 168.082 117C167.696 116.34 167.502 115.427 167.502 114.26ZM171.582 114.26C171.582 113.72 171.546 113.263 171.472 112.89C171.406 112.517 171.266 112.213 171.052 111.98C170.839 111.74 170.522 111.62 170.102 111.62C169.682 111.62 169.366 111.74 169.152 111.98C168.939 112.213 168.796 112.517 168.722 112.89C168.656 113.263 168.622 113.72 168.622 114.26C168.622 114.82 168.656 115.29 168.722 115.67C168.789 116.05 168.929 116.357 169.142 116.59C169.362 116.823 169.682 116.94 170.102 116.94C170.522 116.94 170.839 116.823 171.052 116.59C171.272 116.357 171.416 116.05 171.482 115.67C171.549 115.29 171.582 114.82 171.582 114.26ZM173.909 114.26C173.909 113.107 174.102 112.207 174.489 111.56C174.882 110.907 175.555 110.58 176.509 110.58C177.462 110.58 178.132 110.907 178.519 111.56C178.912 112.207 179.109 113.107 179.109 114.26C179.109 115.427 178.912 116.34 178.519 117C178.132 117.653 177.462 117.98 176.509 117.98C175.555 117.98 174.882 117.653 174.489 117C174.102 116.34 173.909 115.427 173.909 114.26ZM177.989 114.26C177.989 113.72 177.952 113.263 177.879 112.89C177.812 112.517 177.672 112.213 177.459 111.98C177.245 111.74 176.929 111.62 176.509 111.62C176.089 111.62 175.772 111.74 175.559 111.98C175.345 112.213 175.202 112.517 175.129 112.89C175.062 113.263 175.029 113.72 175.029 114.26C175.029 114.82 175.062 115.29 175.129 115.67C175.195 116.05 175.335 116.357 175.549 116.59C175.769 116.823 176.089 116.94 176.509 116.94C176.929 116.94 177.245 116.823 177.459 116.59C177.679 116.357 177.822 116.05 177.889 115.67C177.955 115.29 177.989 114.82 177.989 114.26ZM185.835 114.87H183.815V116.94H182.755V114.87H180.735V113.91H182.755V111.84H183.815V113.91H185.835V114.87Z" fill="#0D1111"/>
<defs>
<filter id="filter0_d_5_241" x="0" y="0" width="317" height="235" filterUnits="userSpaceOnUse" color-interpolation-filters="sRGB">
<feFlood flood-opacity="0" result="BackgroundImageFix"/>
<feColorMatrix in="SourceAlpha" type="matrix" values="0 0 0 0 0 0 0 0 0 0 0 0 0 0 0 0 0 0 127 0" result="hardAlpha"/>
<feOffset dy="10"/>
<feGaussianBlur stdDeviation="40"/>
<feColorMatrix type="matrix" values="0 0 0 0 0 0 0 0 0 0 0 0 0 0 0 0 0 0 0.05 0"/>
<feBlend mode="normal" in2="BackgroundImageFix" result="effect1_dropShadow_5_241"/>
<feBlend mode="normal" in="SourceGraphic" in2="effect1_dropShadow_5_241" result="shape"/>
</filter>
</defs>
</svg>
